<?xml version="1.0" encoding="utf-8"?>
<!-- Generator: Adobe Illustrator 26.0.0, SVG Export Plug-In . SVG Version: 6.00 Build 0)  -->
<svg version="1.1" id="Layer_1" xmlns="http://www.w3.org/2000/svg" xmlns:xlink="http://www.w3.org/1999/xlink" x="0px" y="0px"
	 viewBox="0 0 30 30" style="enable-background:new 0 0 30 30;" xml:space="preserve">
<style type="text/css">
	.st0{fill-rule:evenodd;clip-rule:evenodd;fill:#080341;}
</style>
<g>
	<defs>
		<rect id="SVGID_1_" y="0" width="30" height="30"/>
	</defs>
	<clipPath id="SVGID_00000045594228853935794360000002867894340866809252_">
		<use xlink:href="#SVGID_1_"  style="overflow:visible;"/>
	</clipPath>
</g>
<g>
	<path class="st0" d="M12.6,7.8c0.2-0.4,0.4-0.7,0.6-1c-2,0.4-3.7,1.6-4.8,3.1c0.8,0.4,1.8,0.9,3,1.2C11.6,9.8,12.1,8.7,12.6,7.8z"
		/>
	<path class="st0" d="M10.8,15c0-0.8,0.1-1.5,0.2-2.2c-1.4-0.4-2.6-0.9-3.5-1.4c-0.5,1.1-0.8,2.3-0.8,3.6s0.3,2.5,0.8,3.6
		c0.9-0.5,2.1-1.1,3.5-1.4C10.9,16.5,10.8,15.8,10.8,15z"/>
	<path class="st0" d="M18.7,11.1c1.2-0.3,2.2-0.8,3-1.2c-1.2-1.5-2.9-2.7-4.8-3.1c0.2,0.3,0.4,0.6,0.6,1
		C17.9,8.7,18.4,9.8,18.7,11.1z"/>
	<path class="st0" d="M11.3,18.9c-1.2,0.3-2.2,0.8-3,1.2c1.2,1.5,2.9,2.7,4.8,3.1c-0.2-0.3-0.4-0.6-0.6-1
		C12.1,21.3,11.6,20.2,11.3,18.9z"/>
	<path class="st0" d="M15,13.3c-0.8,0-1.6-0.1-2.4-0.2c-0.1,0.6-0.1,1.2-0.1,1.9s0,1.3,0.1,1.9c0.7-0.1,1.5-0.2,2.4-0.2
		c0.8,0,1.6,0.1,2.4,0.2c0.1-0.6,0.1-1.2,0.1-1.9s0-1.3-0.1-1.9C16.6,13.3,15.8,13.3,15,13.3z"/>
	<path class="st0" d="M15,11.6c0.7,0,1.4-0.1,2.1-0.2c-0.3-1.2-0.7-2.1-1.1-2.9C15.6,8,15.3,7.5,15,7.1c-0.3,0.4-0.6,0.9-0.9,1.5
		c-0.4,0.8-0.8,1.8-1.1,2.9C13.6,11.6,14.3,11.6,15,11.6z"/>
	<path class="st0" d="M19.2,15c0,0.8-0.1,1.5-0.2,2.2c1.4,0.4,2.6,0.9,3.5,1.4c0.5-1.1,0.8-2.3,0.8-3.6s-0.3-2.5-0.8-3.6
		c-0.9,0.5-2.1,1.1-3.5,1.4C19.1,13.5,19.2,14.2,19.2,15z"/>
	<path class="st0" d="M15,18.4c-0.7,0-1.4,0.1-2.1,0.2c0.3,1.2,0.7,2.1,1.1,2.9c0.3,0.6,0.7,1.1,0.9,1.5c0.3-0.4,0.6-0.9,0.9-1.5
		c0.4-0.8,0.8-1.8,1.1-2.9C16.4,18.4,15.7,18.4,15,18.4z"/>
	<path class="st0" d="M17.4,22.2c-0.2,0.4-0.4,0.7-0.6,1c2-0.4,3.7-1.6,4.8-3.1c-0.8-0.4-1.8-0.9-3-1.2
		C18.4,20.2,17.9,21.3,17.4,22.2z"/>
	<path class="st0" d="M15,0C6.7,0,0,6.7,0,15c0,8.3,6.7,15,15,15c8.3,0,15-6.7,15-15C30,6.7,23.3,0,15,0z M15,25.1
		C9.4,25.1,4.9,20.6,4.9,15C4.9,9.4,9.4,4.9,15,4.9c5.6,0,10.1,4.5,10.1,10.1C25.1,20.6,20.6,25.1,15,25.1z"/>
</g>
</svg>
