<?xml version="1.0" encoding="utf-8"?>
<!-- Generator: Adobe Illustrator 26.0.0, SVG Export Plug-In . SVG Version: 6.00 Build 0)  -->
<svg version="1.1" id="Layer_1" xmlns="http://www.w3.org/2000/svg" xmlns:xlink="http://www.w3.org/1999/xlink" x="0px" y="0px"
	 viewBox="0 0 70 70" style="enable-background:new 0 0 70 70;" xml:space="preserve">
<style type="text/css">
	.st0{fill:#53C1DE;}
	.st1{fill-rule:evenodd;clip-rule:evenodd;fill:#53C1DE;}
</style>
<path class="st0" d="M41,35.9c0-3.2-2.7-5.8-6-5.8c-3.3,0-6,2.6-6,5.8c0,3.2,2.7,5.8,6,5.8C38.3,41.8,41,39.2,41,35.9z"/>
<path class="st1" d="M54.6,25.1c1.3-5,2.9-14.3-2.8-17.5c-5.6-3.1-12.9,2.9-16.8,6.5c-3.8-3.6-11.4-9.6-17-6.4
	C12.4,10.8,14.1,20,15.4,25c-5.2,1.4-14.2,4.5-14.2,10.9c0,6.3,9,9.7,14.2,11.1c-1.3,5.1-3,14.1,2.7,17.2c5.7,3.2,13.2-2.7,17-6.3
	c3.9,3.6,11.1,9.5,16.7,6.4c5.6-3.2,4.2-12.3,2.9-17.4c5-1.4,14-4.8,14-11C68.8,29.7,59.7,26.5,54.6,25.1z M53.9,44.2
	c-0.9-2.6-2-5.4-3.4-8.3c1.3-2.8,2.5-5.6,3.3-8.2c3.8,1.1,12.1,3.5,12.1,8.2C65.9,40.7,57.9,43.1,53.9,44.2z M50.4,61.9
	c-4.2,2.4-10.4-3.3-13.3-6c1.9-2,3.8-4.4,5.7-7c3.3-0.3,6.3-0.7,9.1-1.4C52.9,51.2,54.6,59.6,50.4,61.9z M19.5,61.9
	c-4.2-2.3-2.3-10.4-1.3-14.1c2.8,0.6,5.8,1,9.1,1.3c1.9,2.5,3.8,4.9,5.8,6.9C30.7,58.3,23.7,64.3,19.5,61.9z M4.1,35.9
	c0-4.7,8.2-7.1,12.1-8.2c0.8,2.7,2,5.5,3.3,8.3c-1.4,2.9-2.5,5.7-3.3,8.4C12.5,43.4,4.1,40.7,4.1,35.9z M19.5,10.1
	c4.2-2.4,10.7,3.4,13.5,6c-2,2-3.9,4.4-5.8,6.9c-3.2,0.3-6.2,0.7-9,1.4C17.2,20.3,15.3,12.5,19.5,10.1z M44.9,26
	c2.2,0.3,4.2,0.6,6.2,1c-0.6,1.8-1.3,3.7-2.2,5.6C47.6,30.4,46.3,28.2,44.9,26z M35,18.1c1.3,1.4,2.7,3,4,4.7c-2.7-0.1-5.3-0.1-8,0
	C32.3,21.1,33.7,19.5,35,18.1z M21.2,32.7c-0.8-1.9-1.6-3.8-2.1-5.7c1.9-0.4,4-0.8,6.1-1C23.7,28.2,22.4,30.4,21.2,32.7z M25.2,46
	c-2.2-0.2-4.3-0.6-6.2-1c0.6-1.9,1.3-3.8,2.2-5.8C22.4,41.6,23.8,43.9,25.2,46z M35.1,54c-1.4-1.4-2.7-3-4.1-4.7
	c2.7,0.1,5.4,0.1,8,0C37.8,51,36.4,52.6,35.1,54z M48.9,39.2c0.9,2,1.7,3.9,2.3,5.8c-2,0.4-4.1,0.8-6.3,1
	C46.3,43.8,47.6,41.5,48.9,39.2z M41.2,46.3c-4.1,0.3-8.2,0.3-12.3,0c-2.3-3.3-4.4-6.8-6.2-10.4c1.8-3.6,3.8-7,6.1-10.3
	c4.1-0.3,8.2-0.3,12.3,0c2.3,3.3,4.3,6.7,6.2,10.3C45.5,39.6,43.5,43,41.2,46.3z M50.4,10c4.2,2.4,2.3,10.7,1.4,14.4
	c-2.8-0.6-5.8-1.1-9-1.4c-1.9-2.6-3.8-4.9-5.7-6.9C39.9,13.4,46.2,7.7,50.4,10z"/>
</svg>
