<?xml version="1.0" encoding="utf-8"?>
<!-- Generator: Adobe Illustrator 26.0.0, SVG Export Plug-In . SVG Version: 6.00 Build 0)  -->
<svg version="1.1" id="Layer_1" xmlns="http://www.w3.org/2000/svg" xmlns:xlink="http://www.w3.org/1999/xlink" x="0px" y="0px"
	 viewBox="0 0 69 69" style="enable-background:new 0 0 69 69;" xml:space="preserve">
<style type="text/css">
	.st0{fill:#FE4300;}
</style>
<g>
	<path class="st0" d="M32.1,20.5h-6.2v29h4.4c3.5,0,6.3-0.4,8.7-1.2c2.3-0.8,4.1-2.3,5.4-4.4c1.3-2.1,1.9-5.1,1.9-8.8
		c0-5-1.2-8.7-3.5-11C40.6,21.7,37,20.5,32.1,20.5z"/>
	<path class="st0" d="M34.5,0C15.4,0,0,15.4,0,34.5S15.4,69,34.5,69S69,53.6,69,34.5S53.6,0,34.5,0z M49.4,45.7
		c-1.7,2.9-4.2,5-7.3,6.3c-3.1,1.4-6.8,2.1-11.1,2.1H20.5V15.9H32c6.5,0,11.4,1.5,14.9,4.5c3.4,3,5.2,7.9,5.2,14.6
		C52,39.3,51.1,42.9,49.4,45.7z"/>
</g>
</svg>
