<?xml version="1.0" encoding="utf-8"?>
<!-- Generator: Adobe Illustrator 26.0.0, SVG Export Plug-In . SVG Version: 6.00 Build 0)  -->
<svg version="1.1" id="Layer_1" xmlns="http://www.w3.org/2000/svg" xmlns:xlink="http://www.w3.org/1999/xlink" x="0px" y="0px"
	 viewBox="0 0 70 70" style="enable-background:new 0 0 70 70;" xml:space="preserve">
<style type="text/css">
	.st0{fill:#00979C;}
</style>
<g>
	<path class="st0" d="M5.9,46.1L2.6,57h2.6l0.6-2h3.3l0.6,2h2.9L9.2,46.1H5.9L5.9,46.1z M6.5,52.7l1-3.4l1,3.4H6.5L6.5,52.7z"/>
	<path class="st0" d="M18.8,52c0,0-0.1-0.1-0.1-0.1c0.1,0,0.2-0.1,0.2-0.1c0.3-0.1,0.6-0.3,0.8-0.6c0.2-0.2,0.4-0.5,0.5-0.9
		c0.1-0.3,0.2-0.7,0.2-1.1c0-0.6-0.1-1.1-0.3-1.5c-0.2-0.4-0.5-0.7-0.9-1c-0.4-0.2-0.8-0.4-1.3-0.5c-0.5-0.1-1.1-0.2-1.7-0.2h-3.4
		V57h2.6v-4.3h0.1c0.3,0,0.5,0.1,0.7,0.2c0.2,0.1,0.4,0.3,0.5,0.6l1.6,3.5h3l-1.9-3.9C19.3,52.6,19,52.2,18.8,52L18.8,52z
		 M17.7,49.9c-0.1,0.1-0.2,0.3-0.3,0.4c-0.1,0.1-0.3,0.2-0.5,0.2c-0.2,0.1-0.5,0.1-0.8,0.1h-0.5v-2.3h0.6c0.6,0,1,0.1,1.3,0.3
		c0.2,0.2,0.4,0.4,0.4,0.8C17.8,49.6,17.7,49.7,17.7,49.9L17.7,49.9z"/>
	<path class="st0" d="M29.1,47.3c-0.4-0.4-1-0.8-1.7-1c-0.6-0.2-1.4-0.3-2.2-0.3h-3.5V57h3c1,0,1.8-0.1,2.5-0.4
		c0.7-0.3,1.3-0.6,1.8-1.1c0.5-0.5,0.8-1.1,1-1.8c0.2-0.7,0.3-1.4,0.3-2.3c0-0.9-0.1-1.7-0.3-2.3C29.9,48.4,29.5,47.8,29.1,47.3
		L29.1,47.3z M27,54c-0.5,0.5-1.1,0.7-2,0.7h-0.6v-6.4h0.7c0.5,0,0.9,0.1,1.3,0.2c0.3,0.1,0.6,0.3,0.8,0.6c0.2,0.3,0.3,0.6,0.4,1
		c0.1,0.4,0.1,0.9,0.1,1.4C27.6,52.6,27.4,53.5,27,54L27,54z"/>
	<path class="st0" d="M36.7,53c0,0.4,0,0.7-0.1,1c-0.1,0.2-0.2,0.4-0.3,0.6c-0.1,0.1-0.3,0.2-0.4,0.3c-0.2,0.1-0.4,0.1-0.7,0.1
		c-0.3,0-0.6,0-0.8-0.1c-0.2-0.1-0.3-0.2-0.5-0.3c-0.1-0.1-0.2-0.3-0.3-0.6c-0.1-0.2-0.1-0.5-0.1-0.9v-7h-2.6v7.1
		c0,0.6,0.1,1.1,0.2,1.6c0.1,0.5,0.4,0.9,0.7,1.3c0.3,0.3,0.8,0.6,1.3,0.8c0.5,0.2,1.1,0.3,1.9,0.3c0.6,0,1.2-0.1,1.7-0.3
		c0.5-0.2,1-0.5,1.4-0.8c0.4-0.4,0.7-0.8,0.9-1.4c0.2-0.5,0.3-1.1,0.3-1.8v-6.8h-2.6V53"/>
	<path class="st0" d="M40.7,48.2H43v6.5h-2.3V57H48v-2.2h-2.3v-6.5H48v-2.2h-7.3V48.2"/>
	<path class="st0" d="M55.3,52.3l-2.9-6.2h-3V57h2.4v-6.3l2.9,6.3h2.9V46.1h-2.4V52.3"/>
	<path class="st0" d="M66.2,47.3c-0.8-1-1.9-1.5-3.4-1.5c-0.6,0-1.2,0.1-1.8,0.3c-0.6,0.2-1.1,0.6-1.5,1c-0.4,0.5-0.8,1.1-1,1.8
		c-0.2,0.7-0.4,1.6-0.4,2.5c0,1.8,0.4,3.2,1.1,4.1c0.8,1,1.9,1.5,3.4,1.5c0.6,0,1.2-0.1,1.8-0.3c0.6-0.2,1.1-0.6,1.5-1
		c0.4-0.5,0.8-1.1,1-1.8c0.2-0.7,0.4-1.6,0.4-2.5C67.3,49.7,66.9,48.3,66.2,47.3L66.2,47.3z M64.5,53c-0.1,0.4-0.2,0.7-0.3,1
		c-0.1,0.3-0.3,0.4-0.6,0.6c-0.2,0.1-0.5,0.2-0.8,0.2c-0.7,0-1.1-0.2-1.4-0.7c-0.3-0.5-0.5-1.4-0.5-2.6c0-0.5,0-1,0.1-1.5
		c0.1-0.4,0.2-0.7,0.4-1c0.2-0.3,0.3-0.4,0.6-0.6c0.2-0.1,0.5-0.2,0.8-0.2c0.7,0,1.1,0.2,1.4,0.7c0.3,0.5,0.5,1.4,0.5,2.6
		C64.6,52.1,64.5,52.6,64.5,53L64.5,53z"/>
	<path class="st0" d="M63.5,14.3H64v1.2h0.3v-1.2h0.5V14h-1.3V14.3"/>
	<path class="st0" d="M65.9,14l-0.3,1l-0.3-1h-0.4v1.5h0.3v-1l0.3,1h0.3l0.3-0.9v0.9h0.3V14H65.9"/>
	<path class="st0" d="M50.8,43.5c-4.1,0-7.7-1.4-10.8-4.3c-1.9-1.8-3.5-3.9-5-6.2c-1.5,2.2-3.1,4.4-5,6.2c-3.4,3.1-7.2,4.5-11.7,4.2
		c-8.7,0-15.7-6.9-15.7-15.3c0-8.4,7.1-15.3,15.8-15.3c4.8,0,8.8,1.6,12.3,4.8c1.7,1.6,3.1,3.4,4.4,5.3c1.3-1.9,2.7-3.7,4.4-5.3
		c3.5-3.2,7.5-4.8,12.3-4.8c8.7,0,15.8,6.9,15.8,15.3c0,8.4-7.1,15.3-15.7,15.3C51.4,43.5,51.1,43.5,50.8,43.5L50.8,43.5z M38.2,28
		c1.7,2.8,3.4,5.4,5.5,7.3c2.3,2.1,4.7,3,7.9,2.8l0.1,0c5.7,0,10.4-4.4,10.4-9.9c0-5.5-4.7-9.9-10.4-9.9c-3.4,0-6.1,1.1-8.6,3.4
		C41.2,23.4,39.7,25.6,38.2,28L38.2,28z M18.3,18.3c-5.7,0-10.4,4.4-10.4,9.9c0,5.5,4.7,9.9,10.4,9.9l0.1,0c3.1,0.2,5.6-0.7,7.9-2.8
		c2-1.9,3.7-4.5,5.5-7.3c-1.5-2.4-3-4.6-4.9-6.3C24.5,19.3,21.7,18.3,18.3,18.3L18.3,18.3z"/>
	<path class="st0" d="M52.4,26.2v-2.9h-3v2.9h-2.9v3h2.9v3h3v-3h2.9v-3H52.4"/>
	<path class="st0" d="M14,26.2h9.6v3.1H14V26.2z"/>
</g>
</svg>
