<?xml version="1.0" encoding="utf-8"?>
<!-- Generator: Adobe Illustrator 26.0.0, SVG Export Plug-In . SVG Version: 6.00 Build 0)  -->
<svg version="1.1" id="Layer_1" xmlns="http://www.w3.org/2000/svg" xmlns:xlink="http://www.w3.org/1999/xlink" x="0px" y="0px"
	 viewBox="0 0 70 70" style="enable-background:new 0 0 70 70;" xml:space="preserve">
<g>
	<path d="M32.9,2.1c-0.1,0-0.6,0.1-1,0.1C22.6,3,13.8,8.1,8.2,15.8C5.1,20.1,3.2,25,2.4,30.2C2.2,32,2.1,32.6,2.1,35
		c0,2.5,0,3,0.3,4.8C4.2,52.2,13,62.6,25,66.4c2.1,0.7,4.4,1.2,7,1.4c1,0.1,5.3,0.1,6.3,0c4.4-0.5,8.2-1.6,11.9-3.5
		c0.6-0.3,0.7-0.4,0.6-0.4c-0.1,0-2.5-3.3-5.4-7.2l-5.3-7.1l-6.6-9.8c-3.6-5.4-6.6-9.8-6.6-9.8c0,0-0.1,4.3-0.1,9.6
		c0,9.3,0,9.7-0.1,9.9c-0.2,0.3-0.3,0.4-0.6,0.6c-0.2,0.1-0.4,0.1-1.4,0.1h-1.1l-0.3-0.2c-0.2-0.1-0.3-0.3-0.4-0.5l-0.1-0.3l0-12.9
		l0-12.9l0.2-0.3c0.1-0.1,0.3-0.3,0.5-0.4c0.3-0.1,0.4-0.1,1.5-0.1c1.3,0,1.5,0.1,1.9,0.4c0.1,0.1,3.7,5.5,7.9,12s10.1,15.3,13,19.7
		l5.2,7.9l0.3-0.2c2.3-1.5,4.8-3.7,6.8-5.9c4.2-4.8,6.9-10.6,7.8-16.8C68,38,68,37.5,68,35c0-2.5,0-3-0.3-4.8
		C65.9,17.8,57.1,7.5,45.2,3.6c-2.1-0.7-4.3-1.2-6.9-1.4C37.7,2.1,33.4,2,32.9,2.1L32.9,2.1z M46.4,22c0.3,0.2,0.6,0.5,0.7,0.8
		c0.1,0.2,0.1,3.7,0.1,11.8l0,11.6L45,43l-2-3.1v-8.4c0-5.4,0-8.5,0.1-8.6c0.1-0.4,0.3-0.6,0.6-0.8c0.3-0.1,0.4-0.1,1.4-0.1
		C46,21.9,46.2,21.9,46.4,22z"/>
</g>
</svg>
