<?xml version="1.0" encoding="utf-8"?>
<!-- Generator: Adobe Illustrator 26.0.0, SVG Export Plug-In . SVG Version: 6.00 Build 0)  -->
<svg version="1.1" id="Layer_1" xmlns="http://www.w3.org/2000/svg" xmlns:xlink="http://www.w3.org/1999/xlink" x="0px" y="0px"
	 viewBox="0 0 70 70" style="enable-background:new 0 0 70 70;" xml:space="preserve">
<style type="text/css">
	.st0{fill:#8CC84B;}
</style>
<g>
	<path class="st0" d="M37.8,2.8c-1.7-0.9-3.8-0.9-5.5,0C23.9,7.4,15.5,12,7.2,16.7c-1.6,0.9-2.7,2.6-2.7,4.4v27.9
		c0,1.8,1.1,3.6,2.8,4.5c2.4,1.3,4.7,2.7,7.2,3.9c2.8,1.4,6.4,1.7,9.2,0.2c2.3-1.2,3.4-3.9,3.3-6.3c0-9.2,0-18.4,0-27.6
		c0.1-0.4-0.3-0.8-0.7-0.8c-1.1,0-2.1,0-3.2,0c-0.4,0-0.8,0.3-0.8,0.7c0,9.1,0,18.3,0,27.4c0,1.3-0.8,2.5-2,2.9
		c-2.8,1-10.8-4.2-10.8-4.2C9.2,49.4,9,49.1,9,48.8c0-9.2,0-18.4,0-27.6c0-0.4,0.2-0.7,0.5-0.9c8.3-4.6,16.7-9.2,25-13.8
		c0.3-0.2,0.7-0.2,1,0c8.3,4.6,16.7,9.2,25,13.8c0.3,0.2,0.6,0.5,0.5,0.9c0,9.2,0,18.4,0,27.6c0,0.3-0.1,0.6-0.4,0.8
		c-8.3,4.6-16.6,9-24.8,13.7c-0.4,0.2-0.8,0.4-1.2,0.2c-2.2-1.2-4.3-2.4-6.4-3.6c-0.2-0.1-0.5-0.2-0.8,0c-1,0.5-1.9,0.9-3,1.4
		c-1.5,0.6-1.3,0.9,0.1,1.7c2.5,1.4,5,2.8,7.5,4.3c1.6,1,3.9,1.1,5.6,0.2C46,62.6,54.4,58,62.7,53.4c1.7-0.8,2.8-2.6,2.8-4.5V21.1
		c0-1.8-1-3.5-2.6-4.4C54.5,12.1,46.1,7.5,37.8,2.8z"/>
	<path class="st0" d="M50.4,23.7c-3.3-1.8-7.2-1.8-10.8-1.6c-2.6,0.3-5.4,1-7.3,2.9c-2,1.9-2.4,5-1.5,7.4c0.7,1.8,2.4,2.9,4.1,3.5
		c2.2,0.8,4.6,1,7,1.3c2.2,0.2,4.3,0.4,6.4,1.1c0.8,0.3,1.8,0.7,2.1,1.6c0.2,1.1,0,2.4-0.9,3.1c-2.8,2.2-10.6,1.9-13.4,0.1
		c-1.1-0.7-1.6-2.1-1.8-3.3c0-0.4-0.3-0.8-0.8-0.7c-1.1,0-2.1,0-3.2,0c-0.4,0-0.8,0.2-0.8,0.6c-0.2,5.8,5.1,8.3,10,8.8
		c2.8,0.3,5.7,0.3,8.5-0.4c2.1-0.5,4.2-1.4,5.6-3c1.8-2,2.1-4.9,1.3-7.3c-0.6-1.8-2.4-3-4.1-3.6c-2.4-0.8-5.3-1.3-7.5-1.5
		c-3.2-0.3-7-0.2-7.9-2.3c-0.4-1.1-0.1-2.5,1-3.1c2.7-1.8,8.1-1.6,10.9-0.2c1.3,0.6,2,1.9,2.3,3.3c0.1,0.4,0.3,0.8,0.8,0.8
		c1.1,0,2.1,0,3.2,0c0.4,0,0.8-0.2,0.8-0.6C54.3,27.9,52.9,25.1,50.4,23.7z"/>
</g>
</svg>
