<?xml version="1.0" encoding="utf-8"?>
<!-- Generator: Adobe Illustrator 26.0.0, SVG Export Plug-In . SVG Version: 6.00 Build 0)  -->
<svg version="1.1" id="Layer_1" xmlns="http://www.w3.org/2000/svg" xmlns:xlink="http://www.w3.org/1999/xlink" x="0px" y="0px"
	 viewBox="0 0 70 70" style="enable-background:new 0 0 70 70;" xml:space="preserve">
<style type="text/css">
	.st0{fill-rule:evenodd;clip-rule:evenodd;fill:#00759D;}
</style>
<desc>Created with Sketch.</desc>
<g id="Page-1">
	<g>
		
			<g id="Dribbble-Light-Preview_00000145754596758050922560000017963870592689204104_" transform="translate(-260.000000, -7559.000000)">
			<g id="icons_00000150064584379971331090000012784812547855006886_" transform="translate(56.000000, 160.000000)">
				<path id="wordpress-_x5B__x23_139_x5D__00000036248552032930067410000015312495180944678298_" class="st0" d="M267.7,7418.3
					c0.1,1,0.2,2.2,0.2,3.4c0,5.7-0.5,6.1-12.5,40.5c9.7-5.7,16.2-16.2,16.2-28.2C271.7,7428.3,270.2,7423,267.7,7418.3
					L267.7,7418.3z M239.6,7436.9l-9.8,28.5c6.6,1.9,13.6,1.7,20.1-0.5c-0.1-0.1-0.2-0.3-0.2-0.5L239.6,7436.9z M261,7432.4
					c0-4-1.5-6.8-2.7-9c-1.7-2.7-3.2-5-3.2-7.7c0-3,2.3-5.8,5.5-5.8c0.1,0,0.3,0,0.4,0c-5.8-5.3-13.6-8.6-22.1-8.6
					c-11.4,0-21.4,5.9-27.3,14.7c2.1,0.1,4.9,0.1,10.8-0.4c1.8-0.1,2,2.5,0.2,2.7c0,0-1.8,0.2-3.7,0.3l11.9,35.4l7.1-21.4l-5.1-13.9
					c-1.8-0.1-3.4-0.3-3.4-0.3c-1.8-0.1-1.6-2.8,0.2-2.7c6.8,0.5,10.2,0.6,17.3,0c1.8-0.1,2,2.5,0.2,2.7c0,0-1.8,0.2-3.7,0.3
					l11.8,35.1C260,7438.2,261,7435.6,261,7432.4L261,7432.4z M206.3,7434c0,12.9,7.5,24.1,18.4,29.4l-15.6-42.7
					C207.4,7424.8,206.3,7429.3,206.3,7434L206.3,7434z"/>
			</g>
		</g>
	</g>
</g>
</svg>
